<?xml version="1.0" encoding="UTF-8" standalone="no"?>
<!-- Created with Inkscape (http://www.inkscape.org/) -->

<svg
   xmlns:dc="http://purl.org/dc/elements/1.1/"
   xmlns:cc="http://creativecommons.org/ns#"
   xmlns:rdf="http://www.w3.org/1999/02/22-rdf-syntax-ns#"
   xmlns:svg="http://www.w3.org/2000/svg"
   xmlns="http://www.w3.org/2000/svg"
   xmlns:sodipodi="http://sodipodi.sourceforge.net/DTD/sodipodi-0.dtd"
   xmlns:inkscape="http://www.inkscape.org/namespaces/inkscape"
   width="400"
   height="400"
   viewBox="0 0 400 400"
   version="1.1"
   id="SVGRoot"
   inkscape:version="0.92.2 5c3e80d, 2017-08-06"
   sodipodi:docname="rpLogo.svg">
  <sodipodi:namedview
     id="base"
     pagecolor="#ffffff"
     bordercolor="#666666"
     borderopacity="1.0"
     inkscape:pageopacity="0.0"
     inkscape:pageshadow="2"
     inkscape:zoom="0.879692"
     inkscape:cx="181.30023"
     inkscape:cy="225.78696"
     inkscape:document-units="px"
     inkscape:current-layer="layer1"
     showgrid="false"
     inkscape:window-width="1280"
     inkscape:window-height="705"
     inkscape:window-x="0"
     inkscape:window-y="1"
     inkscape:window-maximized="1"
     inkscape:pagecheckerboard="true" />
  <defs
     id="defs10" />
  <metadata
     id="metadata13">
    <rdf:RDF>
      <cc:Work
         rdf:about="">
        <dc:format>image/svg+xml</dc:format>
        <dc:type
           rdf:resource="http://purl.org/dc/dcmitype/StillImage" />
        <dc:title />
      </cc:Work>
    </rdf:RDF>
  </metadata>
  <g
     id="layer1"
     inkscape:groupmode="layer"
     inkscape:label="Layer 1"
     transform="translate(0,-800)">
    <circle
       style="fill:#ac9393"
       id="path3719"
       cx="134.95901"
       cy="-1002.5117"
       transform="scale(1,-1)"
       r="0" />
    <path
       style="font-style:normal;font-variant:normal;font-weight:normal;font-stretch:normal;font-size:339.72598267px;line-height:7.25;font-family:'Sinhala MN';-inkscape-font-specification:'Sinhala MN';letter-spacing:0px;word-spacing:0px;fill:#000000;fill-opacity:1;stroke:none;stroke-width:1.56710351"
       d="m -407.77942,832.33819 c 0.077,9.7101 1.2466,19.0223 3.5313,27.9256 2.2964,9.3252 5.6101,18.0089 9.9422,26.0515 4.2351,8.1413 9.3922,15.4926 15.4703,22.0532 5.9814,6.5604 12.6418,12.1806 19.9832,16.8614 7.3412,4.7801 15.2665,8.4216 23.7752,10.925 8.5085,2.6025 17.35849,3.9169 26.55158,3.9439 9.28983,0.028 18.29425,-1.2344 27.01071,-3.7863 8.61939,-2.453 16.70879,-6.0476 24.27018,-10.7836 7.561,-4.6371 14.44683,-10.2175 20.65848,-16.7419 0.0552,-0.059 0.10779,-0.1182 0.16285,-0.1763 l 112.56307,83.9925 47.011246,-61.4064 -129.658096,-97.7254 c 4.9e-4,-0.181 0.0124,-0.3598 0.0154,-0.5409 l -74.79912,-0.2201 c -0.0938,2.1474 -0.38745,4.2197 -0.90956,6.2074 -0.62879,2.3943 -1.51736,4.6224 -2.6678,6.6838 -1.15059,2.0869 -2.52546,3.9689 -4.12276,5.6465 -1.5973,1.6778 -3.36764,3.1129 -5.31195,4.3054 -1.9444,1.2177 -4.02433,2.1416 -6.2408,2.7724 -2.24143,0.6563 -4.55612,0.9811 -6.94501,0.9741 -2.36402,-0.011 -4.64042,-0.3453 -6.82836,-1.0146 -2.18804,-0.6437 -4.2263,-1.5796 -6.11408,-2.8088 -1.88785,-1.2036 -3.60088,-2.649 -5.13908,-4.336 -1.5629,-1.6872 -2.8891,-3.5769 -3.9782,-5.6704 -1.114,-2.068 -1.9663,-4.3012 -2.5568,-6.6993 -0.5109,-1.9908 -0.7947,-4.0647 -0.8764,-6.2126 z"
       id="path4656"
       inkscape:connector-curvature="0"
       sodipodi:nodetypes="ccccccccccccccccccscccccccccc" />
    <g
       id="g3802"
       style="font-style:normal;font-weight:normal;font-size:70.77624512px;line-height:1.25;font-family:sans-serif;letter-spacing:0px;word-spacing:0px;fill:#ffffff;fill-opacity:1;stroke:none;stroke-width:1.76940608"
       aria-label="O"
       transform="matrix(0.2571506,0,0,0.2571506,136.43034,731.47933)" />
    <path
       style="opacity:1;fill:#000000;stroke-width:1.20070648"
       d="m 1441.2172,1987.296 c -0.2367,-9.1901 -1.7523,-18.0084 -4.5483,-26.4546 -2.6969,-8.4487 -6.5186,-16.2877 -11.4648,-23.5165 -4.8472,-7.2314 -10.6184,-13.7591 -17.3135,-19.5874 -6.6976,-5.925 -14.1636,-10.9111 -22.3995,-14.957 -8.1392,-4.1452 -16.8978,-7.2592 -26.273,-9.3396 -8.953,-2.0785 -18.2875,-3.0319 -27.9967,-2.8851 l 1.9263,74.7743 c 2.1492,0.032 4.2286,0.2669 6.2305,0.7317 2.4109,0.5349 4.6623,1.3348 6.7553,2.4008 2.1179,1.0404 4.037,2.3244 5.7593,3.848 1.7217,1.4987 3.2066,3.1768 4.4531,5.0364 1.2719,1.8589 2.2547,3.8742 2.9482,6.0468 0.719,2.1719 1.1094,4.4399 1.1703,6.8032 0.062,2.3881 -0.2111,4.7097 -0.816,6.9657 -0.58,2.2305 -1.4555,4.3326 -2.6287,6.3046 -1.1478,1.9714 -2.5435,3.7738 -4.1844,5.4094 -1.6409,1.6357 -3.49,3.0545 -5.5501,4.2529 -2.0347,1.1978 -4.2416,2.1361 -6.621,2.8201 -1.9754,0.5678 -4.0406,0.9097 -6.1852,1.053 0.2629,9.5416 -1.5401,8.3238 6.321,7.3528 0.014,-0.7864 0.013,-1.709 0.036,-2.4083 2.3795,-0.684 10.4117,-7.792 12.4463,-8.9898 2.0602,-1.1985 3.9093,-2.6172 5.5502,-4.2529 1.6409,-1.6356 3.0366,-3.438 4.1843,-5.4094 1.1732,-1.972 2.0487,-4.0741 2.6288,-6.3046 0.6048,-2.256 0.8776,-4.5776 0.816,-6.9658 -0.061,-2.3632 -0.4514,-4.6312 -1.1704,-6.8031 -0.6934,-2.1726 -1.6763,-4.1879 -2.9482,-6.0468 -1.2464,-1.8596 -2.7313,-3.5377 -4.453,-5.0364 -1.7223,-1.5236 -3.6414,-2.8076 -5.7593,-3.848 -3.0691,-1.5438 -14.6481,-8.7329 -13.1581,-9.13 l -1.6392,-64.7785 c 9.7092,-0.1468 15.9442,1.2304 15.9442,1.2304 5.8468,1.0236 18.1041,5.2533 26.273,9.3396 8.2066,4.1051 15.621,7.0595 22.3421,12.9578 6.6717,5.8551 12.4317,12.3793 17.3135,19.5874 4.9117,7.2523 8.768,15.0678 11.4648,23.5165 2.796,8.4462 4.3116,17.2645 4.5483,26.4546 0.2393,9.2868 -0.8169,18.3173 -3.1691,27.0904 -2.2556,8.6738 -5.6641,16.8438 -10.2264,24.5126 -1.0232,1.7573 -2.1023,3.4763 -3.2262,5.165 1.3102,0.941 2.5963,1.9171 3.8666,2.9156 1.9173,-2.6616 3.7031,-5.4119 5.3571,-8.2528 4.5623,-7.6688 7.9708,-15.8388 10.2264,-24.5126 2.3522,-8.7731 3.4084,-17.8036 3.1691,-27.0904 z m -22.6192,56.9402 c -2.9549,-2.1222 -6.0102,-4.1009 -9.1681,-5.9307 -8.5536,-5.0648 -17.7344,-8.8393 -27.5415,-11.3235 -9.8102,-2.5948 -19.9652,-3.741 -30.4667,-3.4395 -3.5845,0.1029 -7.122,0.3844 -10.6217,0.813 -0.2603,14.5794 1.035,45.3202 1.5453,65.2501 9.7038,-0.3559 7.0414,0.5536 15.8753,-1.9857 9.2531,-2.6598 17.836,-6.3182 25.7484,-10.976 8.0114,-4.6605 15.208,-10.1721 21.589,-16.5327 4.9183,-4.9027 9.2611,-10.1969 13.04,-15.875 z m -41.2099,98.4128 c -21.9935,0.2586 -45.3506,1.4346 -66.6772,1.9986 l 0.1473,5.7442 60.7045,-1.573 1.6278,64.5834 -54.705,1.4008 -72.4491,1.8594 -1.7864,-70.1065 -5.5993,0.1608 c -0.1915,-10.8307 0.874,-21.25 3.2276,-31.2461 0.4381,-1.8606 0.9274,-3.6912 1.4402,-5.5085 l -5.3759,-211.0401 66.4536,-1.6873 3.4812,136.4153 c 1.9459,-0.8862 3.9152,-1.7256 5.919,-2.4991 l -3.5749,-140.0859 -78.4486,2.0317 8.4381,329.7355 78.4467,-2.0317 60.7025,-1.573 z m -69.5107,-108.999 c -5.0299,2.2908 -9.8739,4.944 -14.5169,7.9883 -8.4731,5.4431 -16.1417,11.9135 -23.007,19.4125 -6.8652,7.4989 -12.7111,15.8539 -17.5359,25.0644 -3.9699,7.4828 -7.1268,15.4374 -9.4991,23.8469 l 0.9315,36.5938 66.4609,-1.9083 z m -98.5029,-85.6534 c -0.263,-9.1604 -1.3646,-24.4606 -2.4475,-34.0004 -1.8205,-16.0366 -2.3535,-17.3341 -7.0767,-17.1985 -8.0937,0.2324 -35.0783,9.9664 -45.582,16.442 -48.6072,29.967 -60.4532,90.6721 -26.8031,137.3532 5.1204,7.1033 10.0505,14.0789 10.9552,15.5006 0.9429,1.4812 -11.6963,21.7492 -29.6027,47.4746 -17.1858,24.6904 -34.3528,49.5865 -38.1485,55.3248 -3.7957,5.7383 -6.6415,11.6586 -6.3242,13.1557 0.5764,2.72 52.1674,40.1169 55.2224,40.0291 1.2589,-0.036 57.9237,-77.884 88.9342,-122.179 4.7286,-6.7544 4.9695,-9.2325 4.0407,-41.5784 l -0.9876,-34.396 -9.1895,-4.3611 c -12.0859,-5.7347 -16.6318,-12.6148 -16.4478,-24.8937 0.1913,-12.7749 3.9647,-19.0953 15.0112,-25.1365 l 8.9242,-4.8812 z"
       id="rect4642"
       inkscape:connector-curvature="0" />
    <rect
       style="opacity:1;fill:#000000;stroke-width:1.35570967"
       id="rect4664"
       width="87.540985"
       height="400.18735"
       x="-1078.8987"
       y="-533.65094"
       transform="rotate(-90.55467)" />
    <rect
       style="opacity:1;fill:#000000;stroke-width:1.35570967"
       id="rect4666"
       width="87.540985"
       height="400.18735"
       x="617.59058"
       y="814.38501" />
    <rect
       style="opacity:1;fill:#000000;stroke-width:1.35570967"
       id="rect4670"
       width="87.540985"
       height="400.18735"
       x="617.59058"
       y="814.38501" />
    <rect
       y="814.38501"
       x="617.59058"
       height="400.18735"
       width="87.540985"
       id="rect4672"
       style="opacity:1;fill:#000000;stroke-width:1.35570967" />
    <rect
       style="opacity:1;fill:#000000;stroke-width:1.35570967"
       id="rect4674"
       width="87.540985"
       height="400.18735"
       x="617.59058"
       y="814.38501" />
    <rect
       y="814.38501"
       x="617.59058"
       height="400.18735"
       width="87.540985"
       id="rect4676"
       style="opacity:1;fill:#000000;stroke-width:1.35570967" />
    <rect
       style="opacity:1;fill:#000000;stroke-width:1.35570967"
       id="rect4678"
       width="87.540985"
       height="400.18735"
       x="617.59058"
       y="814.38501" />
    <rect
       y="814.38501"
       x="617.59058"
       height="400.18735"
       width="87.540985"
       id="rect4680"
       style="opacity:1;fill:#000000;stroke-width:1.35570967" />
    <rect
       style="opacity:1;fill:#000000;stroke-width:1.35570967"
       id="rect4682"
       width="87.540985"
       height="400.18735"
       x="617.59058"
       y="814.38501" />
    <rect
       y="814.38501"
       x="617.59058"
       height="400.18735"
       width="87.540985"
       id="rect4684"
       style="opacity:1;fill:#000000;stroke-width:1.35570967" />
    <rect
       style="opacity:1;fill:#000000;stroke-width:1.35570967"
       id="rect4686"
       width="87.540985"
       height="400.18735"
       x="617.59058"
       y="814.38501" />
    <rect
       y="814.38501"
       x="617.59058"
       height="400.18735"
       width="87.540985"
       id="rect4688"
       style="opacity:1;fill:#000000;stroke-width:1.35570967" />
    <rect
       style="opacity:1;fill:#000000;stroke-width:1.35570967"
       id="rect4690"
       width="87.540985"
       height="400.18735"
       x="617.59058"
       y="814.38501" />
    <rect
       y="814.38501"
       x="617.59058"
       height="400.18735"
       width="87.540985"
       id="rect4692"
       style="opacity:1;fill:#000000;stroke-width:1.35570967" />
    <rect
       style="opacity:1;fill:#000000;stroke-width:1.35570967"
       id="rect4694"
       width="87.540985"
       height="400.18735"
       x="617.59058"
       y="814.38501" />
    <rect
       y="814.38501"
       x="617.59058"
       height="400.18735"
       width="87.540985"
       id="rect4696"
       style="opacity:1;fill:#000000;stroke-width:1.35570967" />
    <rect
       style="opacity:1;fill:#000000;stroke-width:1.35570967"
       id="rect4698"
       width="87.540985"
       height="400.18735"
       x="617.59058"
       y="814.38501" />
    <rect
       y="814.38501"
       x="617.59058"
       height="400.18735"
       width="87.540985"
       id="rect4700"
       style="opacity:1;fill:#000000;stroke-width:1.35570967" />
    <rect
       style="opacity:1;fill:#000000;stroke-width:1.35570967"
       id="rect4702"
       width="87.540985"
       height="400.18735"
       x="617.59058"
       y="814.38501" />
    <rect
       y="814.38501"
       x="617.59058"
       height="400.18735"
       width="87.540985"
       id="rect4704"
       style="opacity:1;fill:#000000;stroke-width:1.35570967" />
    <rect
       style="opacity:1;fill:#000000;stroke-width:1.35570967"
       id="rect4706"
       width="87.540985"
       height="400.18735"
       x="617.59058"
       y="814.38501" />
    <rect
       y="814.38501"
       x="617.59058"
       height="400.18735"
       width="87.540985"
       id="rect4708"
       style="opacity:1;fill:#000000;stroke-width:1.35570967" />
    <rect
       style="opacity:1;fill:#000000;stroke-width:1.35570967"
       id="rect4710"
       width="87.540985"
       height="400.18735"
       x="617.59058"
       y="814.38501" />
    <rect
       y="814.38501"
       x="617.59058"
       height="400.18735"
       width="87.540985"
       id="rect4712"
       style="opacity:1;fill:#000000;stroke-width:1.35570967" />
    <rect
       style="opacity:1;fill:#000000;stroke-width:1.35570967"
       id="rect4714"
       width="87.540985"
       height="400.18735"
       x="617.59058"
       y="814.38501" />
    <rect
       y="814.38501"
       x="617.59058"
       height="400.18735"
       width="87.540985"
       id="rect4716"
       style="opacity:1;fill:#000000;stroke-width:1.35570967" />
    <rect
       style="opacity:1;fill:#000000;stroke-width:1.35570967"
       id="rect4718"
       width="87.540985"
       height="400.18735"
       x="617.59058"
       y="814.38501" />
    <rect
       y="814.38501"
       x="617.59058"
       height="400.18735"
       width="87.540985"
       id="rect4720"
       style="opacity:1;fill:#000000;stroke-width:1.35570967" />
    <rect
       style="opacity:1;fill:#000000;stroke-width:1.35570967"
       id="rect4722"
       width="87.540985"
       height="400.18735"
       x="617.59058"
       y="814.38501" />
    <rect
       y="814.38501"
       x="617.59058"
       height="400.18735"
       width="87.540985"
       id="rect4724"
       style="opacity:1;fill:#000000;stroke-width:1.35570967" />
    <rect
       style="opacity:1;fill:#000000;stroke-width:1.35570967"
       id="rect4726"
       width="87.540985"
       height="400.18735"
       x="617.59058"
       y="814.38501" />
    <rect
       y="814.38501"
       x="617.59058"
       height="400.18735"
       width="87.540985"
       id="rect4728"
       style="opacity:1;fill:#000000;stroke-width:1.35570967" />
    <rect
       style="opacity:1;fill:#000000;stroke-width:1.35570967"
       id="rect4730"
       width="87.540985"
       height="400.18735"
       x="617.59058"
       y="814.38501" />
    <rect
       y="814.38501"
       x="617.59058"
       height="400.18735"
       width="87.540985"
       id="rect4732"
       style="opacity:1;fill:#000000;stroke-width:1.35570967" />
    <rect
       style="opacity:1;fill:#000000;stroke-width:1.35570967"
       id="rect4734"
       width="87.540985"
       height="400.18735"
       x="617.59058"
       y="814.38501" />
    <rect
       y="814.38501"
       x="617.59058"
       height="400.18735"
       width="87.540985"
       id="rect4736"
       style="opacity:1;fill:#000000;stroke-width:1.35570967" />
    <rect
       style="opacity:1;fill:#000000;stroke-width:1.35570967"
       id="rect4738"
       width="87.540985"
       height="400.18735"
       x="617.59058"
       y="814.38501" />
    <rect
       y="814.38501"
       x="617.59058"
       height="400.18735"
       width="87.540985"
       id="rect4740"
       style="opacity:1;fill:#000000;stroke-width:1.35570967" />
    <rect
       style="opacity:1;fill:#000000;stroke-width:1.35570967"
       id="rect4742"
       width="87.540985"
       height="400.18735"
       x="617.59058"
       y="814.38501" />
    <rect
       y="814.38501"
       x="617.59058"
       height="400.18735"
       width="87.540985"
       id="rect4744"
       style="opacity:1;fill:#000000;stroke-width:1.35570967" />
    <rect
       style="opacity:1;fill:#000000;stroke-width:1.35570967"
       id="rect4746"
       width="87.540985"
       height="400.18735"
       x="617.59058"
       y="814.38501" />
    <rect
       y="814.38501"
       x="617.59058"
       height="400.18735"
       width="87.540985"
       id="rect4748"
       style="opacity:1;fill:#000000;stroke-width:1.35570967" />
    <rect
       style="opacity:1;fill:#000000;stroke-width:1.35570967"
       id="rect4750"
       width="87.540985"
       height="400.18735"
       x="617.59058"
       y="814.38501" />
    <rect
       y="814.38501"
       x="617.59058"
       height="400.18735"
       width="87.540985"
       id="rect4752"
       style="opacity:1;fill:#000000;stroke-width:1.35570967" />
    <rect
       style="opacity:1;fill:#000000;stroke-width:1.35570967"
       id="rect4754"
       width="87.540985"
       height="400.18735"
       x="617.59058"
       y="814.38501" />
    <rect
       y="814.38501"
       x="617.59058"
       height="400.18735"
       width="87.540985"
       id="rect4756"
       style="opacity:1;fill:#000000;stroke-width:1.35570967" />
    <rect
       style="opacity:1;fill:#000000;stroke-width:1.35570967"
       id="rect4758"
       width="87.540985"
       height="400.18735"
       x="617.59058"
       y="814.38501" />
    <rect
       y="814.38501"
       x="617.59058"
       height="400.18735"
       width="87.540985"
       id="rect4760"
       style="opacity:1;fill:#000000;stroke-width:1.35570967" />
    <rect
       style="opacity:1;fill:#000000;stroke-width:1.35570967"
       id="rect4762"
       width="87.540985"
       height="400.18735"
       x="617.59058"
       y="814.38501" />
    <rect
       y="814.38501"
       x="617.59058"
       height="400.18735"
       width="87.540985"
       id="rect4764"
       style="opacity:1;fill:#000000;stroke-width:1.35570967" />
    <rect
       style="opacity:1;fill:#000000;stroke-width:1.35570967"
       id="rect4766"
       width="87.540985"
       height="400.18735"
       x="617.59058"
       y="814.38501" />
    <rect
       y="814.38501"
       x="617.59058"
       height="400.18735"
       width="87.540985"
       id="rect4768"
       style="opacity:1;fill:#000000;stroke-width:1.35570967" />
    <rect
       style="opacity:1;fill:#000000;stroke-width:1.35570967"
       id="rect4770"
       width="87.540985"
       height="400.18735"
       x="617.59058"
       y="814.38501" />
    <rect
       y="814.38501"
       x="617.59058"
       height="400.18735"
       width="87.540985"
       id="rect4772"
       style="opacity:1;fill:#000000;stroke-width:1.35570967" />
    <rect
       style="opacity:1;fill:#000000;stroke-width:1.35570967"
       id="rect4774"
       width="87.540985"
       height="400.18735"
       x="617.59058"
       y="814.38501" />
    <rect
       y="814.38501"
       x="617.59058"
       height="400.18735"
       width="87.540985"
       id="rect4776"
       style="opacity:1;fill:#000000;stroke-width:1.35570967" />
    <rect
       style="opacity:1;fill:#000000;stroke-width:1.35570967"
       id="rect4778"
       width="87.540985"
       height="400.18735"
       x="617.59058"
       y="814.38501" />
    <rect
       y="-533.65094"
       x="-1231.0533"
       height="400.18735"
       width="87.540985"
       id="rect4780"
       style="opacity:1;fill:#000000;stroke-width:1.35570967"
       transform="rotate(-90.55467)" />
    <rect
       style="opacity:1;fill:#000000;stroke-width:1.35570967"
       id="rect4782"
       width="87.541016"
       height="231.94675"
       x="-789.22473"
       y="1315.5778" />
    <rect
       y="408.52304"
       x="-352.83191"
       height="400.18735"
       width="87.540985"
       id="rect4784"
       style="opacity:1;fill:#000000;stroke-width:1.35570967" />
    <path
       style="font-style:normal;font-variant:normal;font-weight:normal;font-stretch:normal;font-size:339.72598267px;line-height:7.25;font-family:'Sinhala MN';-inkscape-font-specification:'Sinhala MN';letter-spacing:0px;word-spacing:0px;fill:#000000;fill-opacity:1;stroke:none;stroke-width:1.76940608"
       d="m 961.73598,906.13157 h 85.47852 c 0.1002,-2.3958 0.4313,-4.7085 1.0215,-6.9277 0.6825,-2.6732 1.6637,-5.1614 2.9433,-7.4649 1.2513,-2.3319 2.7729,-4.4356 4.5645,-6.3125 1.7631,-1.8769 3.7255,-3.4837 5.8867,-4.8203 2.1613,-1.365 4.4936,-2.4023 6.9961,-3.1133 2.5025,-0.7394 5.1051,-1.1094 7.8067,-1.1094 2.73,0 5.3742,0.37 7.9335,1.1094 2.531,0.711 4.9049,1.7483 7.1231,3.1133 2.2181,1.3366 4.2366,2.9434 6.0566,4.8203 1.82,1.8769 3.3852,3.9806 4.6934,6.3125 1.3081,2.3035 2.3164,4.7917 3.0273,7.4649 0.5903,2.2192 0.9193,4.5319 1.0196,6.9277 h 85.4804 c -0.1194,-10.8318 -1.4835,-21.2161 -4.123,-31.1406 -2.7647,-10.3953 -6.6904,-20.0717 -11.7774,-29.0293 -5.0871,-9.0682 -11.1704,-17.252 -18.248,-24.5508 -7.0777,-7.2988 -14.9289,-13.5465 -23.5547,-18.7441 -8.6259,-5.3083 -17.8589,-9.3447 -27.7012,-12.1094 -9.9529,-2.8753 -20.239,-4.3125 -30.8554,-4.3125 -10.5059,0 -20.6238,1.4372 -30.3555,4.3125 -9.7317,2.7647 -18.8004,6.8011 -27.2051,12.1094 -8.4047,5.1976 -16.0341,11.4453 -22.8906,18.7441 -6.96705,7.2988 -12.88413,15.4826 -17.75,24.5508 -4.97645,8.9576 -8.79121,18.634 -11.44532,29.0293 -2.63949,9.9245 -4.00535,20.3088 -4.125,31.1406 z"
       id="path4835"
       inkscape:connector-curvature="0"
       sodipodi:nodetypes="cccccccscccccccsccccscccccc" />
    <path
       inkscape:connector-curvature="0"
       id="path4837"
       d="m 961.73598,1041.458 c 0.11965,10.8317 1.48551,21.2161 4.125,31.1406 2.65411,10.3953 6.46887,20.0717 11.44532,29.0293 4.86587,9.0682 10.78295,17.252 17.75,24.5508 6.8565,7.2988 14.4859,13.5465 22.8906,18.7441 8.4047,5.3083 17.4734,9.3447 27.2051,12.1094 9.7317,2.8753 19.8496,4.3125 30.3555,4.3125 10.6164,0 20.9025,-1.4372 30.8554,-4.3125 9.8423,-2.7647 19.0753,-6.8011 27.7012,-12.1094 8.6258,-5.1976 16.477,-11.4453 23.5547,-18.7441 0.063,-0.065 0.1228,-0.1323 0.1855,-0.1973 l 152.2227,118.6797 53.5273,-68.6563 -171.8027,-133.9433 c 0,-0.2019 0.013,-0.4013 0.016,-0.6035 h -85.4804 c -0.1003,2.3958 -0.4293,4.7085 -1.0196,6.9277 -0.7109,2.6732 -1.7192,5.1614 -3.0273,7.4649 -1.3082,2.3319 -2.8734,4.4356 -4.6934,6.3125 -1.82,1.8769 -3.8385,3.4837 -6.0566,4.8203 -2.2182,1.365 -4.5921,2.4023 -7.1231,3.1133 -2.5594,0.7393 -5.2035,1.1093 -7.9336,1.1093 -2.7016,0 -5.3041,-0.37 -7.8066,-1.1093 -2.5025,-0.711 -4.8348,-1.7483 -6.9961,-3.1133 -2.1613,-1.3366 -4.1236,-2.9434 -5.8867,-4.8203 -1.7916,-1.8769 -3.3132,-3.9806 -4.5645,-6.3125 -1.2797,-2.3035 -2.2608,-4.7917 -2.9433,-7.4649 -0.5902,-2.2192 -0.9213,-4.5319 -1.0215,-6.9277 z"
       style="font-style:normal;font-variant:normal;font-weight:normal;font-stretch:normal;font-size:339.72598267px;line-height:7.25;font-family:'Sinhala MN';-inkscape-font-specification:'Sinhala MN';letter-spacing:0px;word-spacing:0px;fill:#000000;fill-opacity:1;stroke:none;stroke-width:1.76940608" />
    <path
       inkscape:connector-curvature="0"
       id="path4839"
       d="m 961.69497,1017.106 h 400.18753 v -87.54103 -67.7402 h -87.5411 v 67.7402 H 961.69497 Z"
       style="opacity:1;fill:#000000;stroke-width:1.35570967" />
    <path
       style="font-style:normal;font-variant:normal;font-weight:normal;font-stretch:normal;font-size:339.72598267px;line-height:7.25;font-family:'Sinhala MN';-inkscape-font-specification:'Sinhala MN';letter-spacing:0px;word-spacing:0px;fill:#000000;fill-opacity:1;stroke:none;stroke-width:1.53834176"
       d="m 30.054299,904.2812 74.095771,0.21405 c 0.0929,-2.0889 0.38555,-4.1047 0.90269,-6.03836 0.59828,-2.32923 1.45497,-4.49648 2.57,-6.50187 1.09044,-2.03027 2.41467,-3.86086 3.97234,-5.49299 1.53303,-1.63222 3.23802,-3.02846 5.11482,-4.18853 1.87684,-1.18485 3.90116,-2.08356 6.07219,-2.69723 2.17112,-0.63848 4.42801,-0.95458 6.76983,-0.9478 2.36647,0.008 4.65763,0.33609 6.87435,0.98722 2.19216,0.62627 4.2474,1.53676 6.16677,2.73259 1.91943,1.17103 3.66511,2.57724 5.2381,4.21841 1.57297,1.6412 2.92451,3.47953 4.05266,5.51619 1.12819,2.01186 1.996,4.18409 2.60562,6.51684 0.50611,1.93661 0.7856,3.95407 0.86652,6.04345 l 74.09742,0.21406 c -0.0765,-9.44546 -1.23314,-18.50394 -3.49644,-27.1646 -2.37066,-9.07147 -5.74952,-17.51901 -10.13679,-25.34268 -4.38711,-7.92011 -9.63995,-15.07151 -15.75689,-21.45369 -6.11704,-6.38221 -12.90716,-11.84979 -20.37136,-16.40367 -7.46401,-4.6503 -15.45744,-8.19318 -23.98219,-10.6286 -8.62037,-2.53213 -17.53318,-3.81113 -26.73587,-3.83771 -9.10684,-0.0264 -17.88095,1.20157 -26.32392,3.68444 -8.442684,2.3864 -16.313773,5.88345 -23.612457,10.49109 -7.298408,4.51124 -13.92747,9.94005 -19.889049,16.28736 -6.057451,6.34704 -11.206954,13.46836 -15.447433,21.36355 -4.33606,7.79847 -7.666915,16.22663 -9.993468,25.28455 -2.312707,8.64741 -3.522533,17.69906 -3.653214,27.14393 z"
       inkscape:connector-curvature="0"
       sodipodi:nodetypes="cccccccscccccccsccccscccccc"
       id="path4841" />
    <path
       inkscape:connector-curvature="0"
       d="m 29.717421,1022.2842 c 0.07675,9.4456 1.234879,18.504 3.498174,27.1646 2.274796,9.0712 5.557475,17.5184 9.848937,25.3419 4.195332,7.9195 9.30409,15.0705 15.325202,21.4523 5.925242,6.3819 12.523197,11.8488 19.795727,16.4022 7.272256,4.6496 15.123245,8.1921 23.552159,10.6273 8.42866,2.5316 17.19563,3.8102 26.30246,3.8364 9.2027,0.027 18.12264,-1.2008 26.75732,-3.6831 8.53853,-2.3862 16.55206,-5.8828 24.0425,-10.4899 7.49008,-4.5106 14.31131,-9.9391 20.46469,-16.2857 0.0547,-0.058 0.10678,-0.115 0.16131,-0.1715 l 131.65648,103.8685 46.57024,-59.7335 -148.59114,-117.2271 c 5e-4,-0.1763 0.0123,-0.35 0.0153,-0.5263 l -74.09744,-0.2141 c -0.0929,2.0889 -0.38381,4.1047 -0.90102,6.0383 -0.6229,2.3292 -1.50314,4.4964 -2.64277,6.5018 -1.1398,2.03 -2.50179,3.8607 -4.08409,5.4927 -1.58231,1.632 -3.33605,3.028 -5.26212,4.188 -1.92617,1.1847 -3.98656,2.0832 -6.18226,2.6969 -2.22039,0.6383 -4.51337,0.9542 -6.87986,0.9475 -2.34184,-0.011 -4.59688,-0.3358 -6.7643,-0.9871 -2.16752,-0.6261 -4.18665,-1.5363 -6.05671,-2.732 -1.87015,-1.1709 -3.56714,-2.577 -5.09083,-4.218 -1.54832,-1.6412 -2.86207,-3.4794 -3.94091,-5.5159 -1.10355,-2.0118 -1.94785,-4.184 -2.53282,-6.5167 -0.50609,-1.9365 -0.7873,-3.954 -0.86821,-6.0434 z"
       style="font-style:normal;font-variant:normal;font-weight:normal;font-stretch:normal;font-size:339.72598267px;line-height:7.25;font-family:'Sinhala MN';-inkscape-font-specification:'Sinhala MN';letter-spacing:0px;word-spacing:0px;fill:#000000;fill-opacity:1;stroke:none;stroke-width:1.53834176"
       id="path4843" />
    <path
       inkscape:connector-curvature="0"
       d="m 29.742493,1001.0496 346.896477,1.0021 0.21792,-76.33483 0.16863,-59.0687 -75.8836,-0.21921 -0.16864,59.06869 -271.012866,-0.78292 z"
       style="opacity:1;fill:#000000;stroke-width:1.17866945"
       id="path4845" />
    <g
       id="g4636"
       style="font-style:normal;font-weight:normal;font-size:70.77624512px;line-height:1.25;font-family:sans-serif;letter-spacing:0px;word-spacing:0px;opacity:1;fill:#000000;fill-opacity:1;stroke:none;stroke-width:1.76940608"
       aria-label="O"
       transform="matrix(1.0468413,0,0,1.0468413,70.12911,462.18485)">
      <path
         inkscape:connector-curvature="0"
         id="path4634"
         transform="translate(0,800)"
         d="m 183.57422,69.654297 c -11.39055,0 -22.28247,1.383737 -32.67774,4.148437 -10.39526,2.65411 -20.07167,6.468863 -29.02929,11.445313 -8.95761,4.86587 -17.1414,10.78296 -24.550784,17.750003 -7.2988,6.85645 -13.546509,14.48594 -18.74414,22.89062 -5.197631,8.40468 -9.23409,17.47335 -12.109375,27.20508 -2.764697,9.73173 -4.146485,19.84962 -4.146485,30.35547 0,16.03522 3.096142,31.13181 9.289063,45.28711 6.303509,14.0447 14.873324,26.37373 25.710937,36.99023 10.948204,10.5058 23.776184,18.80051 38.484374,24.88282 14.81877,6.0823 30.74291,9.12304 47.77344,9.12304 11.39055,0 22.28443,-1.38178 32.67969,-4.14648 10.39527,-2.7647 20.07168,-6.69035 29.02929,-11.77735 9.06821,-5.0871 17.25198,-11.17044 24.55078,-18.24804 7.29881,-7.0777 13.54651,-14.92889 18.74414,-23.55469 5.30823,-8.6259 9.34469,-17.85887 12.10938,-27.70117 2.87529,-9.9529 4.3125,-20.23903 4.3125,-30.85547 0,-10.50585 -1.43721,-20.62374 -4.3125,-30.35547 -2.76469,-9.73173 -6.80115,-18.8004 -12.10938,-27.20508 -5.19763,-8.40468 -11.44533,-16.03417 -18.74414,-22.89062 -7.2988,-6.967043 -15.48257,-12.884133 -24.55078,-17.750003 -8.95761,-4.97645 -18.63402,-8.791203 -29.02929,-11.445313 -10.39526,-2.7647 -21.28914,-4.148437 -32.67969,-4.148437 z m 0.0625,85.457033 c 2.92909,0 5.73115,0.35546 8.4043,1.0664 2.67315,0.68251 5.16138,1.66367 7.46484,2.94336 2.3319,1.25127 4.43561,2.77288 6.3125,4.56446 1.87689,1.76314 3.48374,3.72545 4.82031,5.88672 1.36501,2.16126 2.40234,4.49357 3.11328,6.99609 0.73939,2.50252 1.10938,5.10505 1.10938,7.80664 0,2.73002 -0.36999,5.3742 -1.10938,7.93359 -0.71094,2.53096 -1.74827,4.9049 -3.11328,7.12305 -1.33657,2.21813 -2.94342,4.23661 -4.82031,6.05664 -1.87689,1.82001 -3.9806,3.38521 -6.3125,4.69336 -2.30346,1.30813 -4.79169,2.3164 -7.46484,3.02734 -2.67315,0.71095 -5.47521,1.06641 -8.4043,1.06641 -4.37941,0 -8.4745,-0.78164 -12.28516,-2.3457 -3.78222,-1.56407 -7.08114,-3.69687 -9.89648,-6.39844 -2.7869,-2.73004 -4.99038,-5.90012 -6.61133,-9.51172 -1.59251,-3.64004 -2.38867,-7.52106 -2.38867,-11.64453 0,-2.70159 0.35546,-5.30412 1.0664,-7.80664 0.73939,-2.50252 1.77671,-4.83483 3.11329,-6.99609 1.33657,-2.16127 2.94342,-4.12358 4.82031,-5.88672 1.90533,-1.79158 4.00904,-3.31319 6.3125,-4.56446 2.30346,-1.27969 4.79365,-2.26085 7.4668,-2.94336 2.67314,-0.71094 5.47325,-1.0664 8.40234,-1.0664 z"
         style="font-style:normal;font-variant:normal;font-weight:normal;font-stretch:normal;font-size:339.72598267px;line-height:7.25;font-family:'Sinhala MN';-inkscape-font-specification:'Sinhala MN';fill:#000000;stroke-width:1.76940608" />
    </g>
    <g
       transform="matrix(0.31124329,0,0,0.31124329,1596.5449,667.04244)"
       aria-label="O"
       style="font-style:normal;font-weight:normal;font-size:70.77624512px;line-height:1.25;font-family:sans-serif;letter-spacing:0px;word-spacing:0px;opacity:1;fill:#ffffff;fill-opacity:1;stroke:none;stroke-width:1.76940608"
       id="g4849">
      <path
         style="font-style:normal;font-variant:normal;font-weight:normal;font-stretch:normal;font-size:339.72598267px;line-height:7.25;font-family:'Sinhala MN';-inkscape-font-specification:'Sinhala MN';fill:#ffffff;stroke-width:1.76940608"
         d="m 183.57422,69.654297 c -11.39055,0 -22.28247,1.383737 -32.67774,4.148437 -10.39526,2.65411 -20.07167,6.468863 -29.02929,11.445313 -8.95761,4.86587 -17.1414,10.78296 -24.550784,17.750003 -7.2988,6.85645 -13.546509,14.48594 -18.74414,22.89062 -5.197631,8.40468 -9.23409,17.47335 -12.109375,27.20508 -2.764697,9.73173 -4.146485,19.84962 -4.146485,30.35547 0,16.03522 3.096142,31.13181 9.289063,45.28711 6.303509,14.0447 14.873324,26.37373 25.710937,36.99023 10.948204,10.5058 23.776184,18.80051 38.484374,24.88282 14.81877,6.0823 30.74291,9.12304 47.77344,9.12304 11.39055,0 22.28443,-1.38178 32.67969,-4.14648 10.39527,-2.7647 20.07168,-6.69035 29.02929,-11.77735 9.06821,-5.0871 17.25198,-11.17044 24.55078,-18.24804 7.29881,-7.0777 13.54651,-14.92889 18.74414,-23.55469 5.30823,-8.6259 9.34469,-17.85887 12.10938,-27.70117 2.87529,-9.9529 4.3125,-20.23903 4.3125,-30.85547 0,-10.50585 -1.43721,-20.62374 -4.3125,-30.35547 -2.76469,-9.73173 -6.80115,-18.8004 -12.10938,-27.20508 -5.19763,-8.40468 -11.44533,-16.03417 -18.74414,-22.89062 -7.2988,-6.967043 -15.48257,-12.884133 -24.55078,-17.750003 -8.95761,-4.97645 -18.63402,-8.791203 -29.02929,-11.445313 -10.39526,-2.7647 -21.28914,-4.148437 -32.67969,-4.148437 z m 0.0625,85.457033 c 2.92909,0 5.73115,0.35546 8.4043,1.0664 2.67315,0.68251 5.16138,1.66367 7.46484,2.94336 2.3319,1.25127 4.43561,2.77288 6.3125,4.56446 1.87689,1.76314 3.48374,3.72545 4.82031,5.88672 1.36501,2.16126 2.40234,4.49357 3.11328,6.99609 0.73939,2.50252 1.10938,5.10505 1.10938,7.80664 0,2.73002 -0.36999,5.3742 -1.10938,7.93359 -0.71094,2.53096 -1.74827,4.9049 -3.11328,7.12305 -1.33657,2.21813 -2.94342,4.23661 -4.82031,6.05664 -1.87689,1.82001 -3.9806,3.38521 -6.3125,4.69336 -2.30346,1.30813 -4.79169,2.3164 -7.46484,3.02734 -2.67315,0.71095 -5.47521,1.06641 -8.4043,1.06641 -4.37941,0 -8.4745,-0.78164 -12.28516,-2.3457 -3.78222,-1.56407 -7.08114,-3.69687 -9.89648,-6.39844 -2.7869,-2.73004 -4.99038,-5.90012 -6.61133,-9.51172 -1.59251,-3.64004 -2.38867,-7.52106 -2.38867,-11.64453 0,-2.70159 0.35546,-5.30412 1.0664,-7.80664 0.73939,-2.50252 1.77671,-4.83483 3.11329,-6.99609 1.33657,-2.16127 2.94342,-4.12358 4.82031,-5.88672 1.90533,-1.79158 4.00904,-3.31319 6.3125,-4.56446 2.30346,-1.27969 4.79365,-2.26085 7.4668,-2.94336 2.67314,-0.71094 5.47325,-1.0664 8.40234,-1.0664 z"
         transform="translate(0,800)"
         id="path4847"
         inkscape:connector-curvature="0" />
    </g>
    <path
       style="font-style:normal;font-variant:normal;font-weight:normal;font-stretch:normal;font-size:339.72598267px;line-height:7.25;font-family:'Sinhala MN';-inkscape-font-specification:'Sinhala MN';letter-spacing:0px;word-spacing:0px;opacity:0.7;fill:#ffffff;fill-opacity:1;stroke:none;stroke-width:1.76940608"
       d="m 1547.1642,753.65032 v 85.47852 c -2.3958,0.10022 -4.7085,0.43127 -6.9277,1.02148 -2.6732,0.68251 -5.1614,1.66367 -7.4649,2.94336 -2.3319,1.25127 -4.4356,2.77288 -6.3125,4.56446 -1.8769,1.76314 -3.4837,3.72545 -4.8203,5.88672 -1.365,2.16126 -2.4023,4.49357 -3.1133,6.99609 -0.7394,2.50252 -1.1094,5.10505 -1.1094,7.80664 0,2.73002 0.37,5.3742 1.1094,7.93359 0.711,2.53096 1.7483,4.9049 3.1133,7.12305 1.3366,2.21811 2.9434,4.23661 4.8203,6.05661 1.8769,1.82 3.9806,3.3852 6.3125,4.6934 2.3035,1.3081 4.7917,2.3164 7.4649,3.0273 2.2192,0.5903 4.5319,0.9193 6.9277,1.0196 v 85.48038 c -10.8318,-0.1194 -21.2161,-1.4835 -31.1406,-4.12301 -10.3953,-2.7647 -20.0717,-6.6904 -29.0293,-11.7774 -9.0682,-5.0871 -17.252,-11.1704 -24.5508,-18.248 -7.2988,-7.0777 -13.5465,-14.92887 -18.7441,-23.55467 -5.3083,-8.6259 -9.3447,-17.8589 -12.1094,-27.7012 -2.8753,-9.9529 -4.3125,-20.23899 -4.3125,-30.85543 0,-10.50585 1.4372,-20.62374 4.3125,-30.35547 2.7647,-9.73173 6.8011,-18.8004 12.1094,-27.20508 5.1976,-8.40468 11.4453,-16.03417 18.7441,-22.89062 7.2988,-6.96705 15.4826,-12.88413 24.5508,-17.75 8.9576,-4.97645 18.634,-8.79121 29.0293,-11.44532 9.9245,-2.63949 20.3088,-4.00535 31.1406,-4.125 z"
       id="path4851"
       inkscape:connector-curvature="0"
       sodipodi:nodetypes="cccccccscccccccsccccscccccc" />
    <path
       style="opacity:0.7;fill:#ffffff;stroke-width:2.27352309"
       d="m 615.83278,703.99769 c -27.50963,-20.6672 -52.63267,-39.4635 -55.82899,-41.7696 -5.79648,-4.182 -5.83759,-4.1719 -15.91467,3.9101 -50.93013,40.8465 -119.19248,25.6366 -148.69477,-33.1317 -5.27368,-10.5051 -12.43426,-36.2778 -12.5582,-45.2 -0.0299,-2.1554 8.64292,-2.8419 35.89936,-2.8419 h 35.93883 l 4.02755,9.1286 c 9.42093,21.3531 38.83866,21.3531 48.25959,0 l 4.02755,-9.1286 h 36.0618 36.06179 l 63.53567,47.9577 c 34.94464,26.3767 63.5357,48.5865 63.5357,49.3552 0,1.1001 -37.20944,51.0872 -42.96822,57.7234 -0.75102,0.8654 -23.87336,-15.336 -51.38299,-36.0032 z"
       id="path4918"
       inkscape:connector-curvature="0" />
    <g
       id="g4977"
       style="font-style:normal;font-weight:normal;font-size:70.77624512px;line-height:1.25;font-family:sans-serif;letter-spacing:0px;word-spacing:0px;opacity:1;fill:#ffffff;fill-opacity:1;stroke:none;stroke-width:1.76940608"
       aria-label="O"
       transform="matrix(0.31124329,0,0,0.31124329,1601.8113,859.06768)">
      <path
         inkscape:connector-curvature="0"
         id="path4975"
         transform="translate(0,800)"
         d="m 183.57422,69.654297 c -11.39055,0 -22.28247,1.383737 -32.67774,4.148437 -10.39526,2.65411 -20.07167,6.468863 -29.02929,11.445313 -8.95761,4.86587 -17.1414,10.78296 -24.550784,17.750003 -7.2988,6.85645 -13.546509,14.48594 -18.74414,22.89062 -5.197631,8.40468 -9.23409,17.47335 -12.109375,27.20508 -2.764697,9.73173 -4.146485,19.84962 -4.146485,30.35547 0,16.03522 3.096142,31.13181 9.289063,45.28711 6.303509,14.0447 14.873324,26.37373 25.710937,36.99023 10.948204,10.5058 23.776184,18.80051 38.484374,24.88282 14.81877,6.0823 30.74291,9.12304 47.77344,9.12304 11.39055,0 22.28443,-1.38178 32.67969,-4.14648 10.39527,-2.7647 20.07168,-6.69035 29.02929,-11.77735 9.06821,-5.0871 17.25198,-11.17044 24.55078,-18.24804 7.29881,-7.0777 13.54651,-14.92889 18.74414,-23.55469 5.30823,-8.6259 9.34469,-17.85887 12.10938,-27.70117 2.87529,-9.9529 4.3125,-20.23903 4.3125,-30.85547 0,-10.50585 -1.43721,-20.62374 -4.3125,-30.35547 -2.76469,-9.73173 -6.80115,-18.8004 -12.10938,-27.20508 -5.19763,-8.40468 -11.44533,-16.03417 -18.74414,-22.89062 -7.2988,-6.967043 -15.48257,-12.884133 -24.55078,-17.750003 -8.95761,-4.97645 -18.63402,-8.791203 -29.02929,-11.445313 -10.39526,-2.7647 -21.28914,-4.148437 -32.67969,-4.148437 z m 0.0625,85.457033 c 2.92909,0 5.73115,0.35546 8.4043,1.0664 2.67315,0.68251 5.16138,1.66367 7.46484,2.94336 2.3319,1.25127 4.43561,2.77288 6.3125,4.56446 1.87689,1.76314 3.48374,3.72545 4.82031,5.88672 1.36501,2.16126 2.40234,4.49357 3.11328,6.99609 0.73939,2.50252 1.10938,5.10505 1.10938,7.80664 0,2.73002 -0.36999,5.3742 -1.10938,7.93359 -0.71094,2.53096 -1.74827,4.9049 -3.11328,7.12305 -1.33657,2.21813 -2.94342,4.23661 -4.82031,6.05664 -1.87689,1.82001 -3.9806,3.38521 -6.3125,4.69336 -2.30346,1.30813 -4.79169,2.3164 -7.46484,3.02734 -2.67315,0.71095 -5.47521,1.06641 -8.4043,1.06641 -4.37941,0 -8.4745,-0.78164 -12.28516,-2.3457 -3.78222,-1.56407 -7.08114,-3.69687 -9.89648,-6.39844 -2.7869,-2.73004 -4.99038,-5.90012 -6.61133,-9.51172 -1.59251,-3.64004 -2.38867,-7.52106 -2.38867,-11.64453 0,-2.70159 0.35546,-5.30412 1.0664,-7.80664 0.73939,-2.50252 1.77671,-4.83483 3.11329,-6.99609 1.33657,-2.16127 2.94342,-4.12358 4.82031,-5.88672 1.90533,-1.79158 4.00904,-3.31319 6.3125,-4.56446 2.30346,-1.27969 4.79365,-2.26085 7.4668,-2.94336 2.67314,-0.71094 5.47325,-1.0664 8.40234,-1.0664 z"
         style="font-style:normal;font-variant:normal;font-weight:normal;font-stretch:normal;font-size:339.72598267px;line-height:7.25;font-family:'Sinhala MN';-inkscape-font-specification:'Sinhala MN';fill:#ffffff;stroke-width:1.76940608" />
    </g>
    <g
       transform="matrix(0,1.5624087,1.5624087,0,-20.431988,143.14619)"
       aria-label="O"
       style="font-style:normal;font-weight:normal;font-size:70.77624512px;line-height:1.25;font-family:sans-serif;letter-spacing:0px;word-spacing:0px;opacity:1;fill:#ffffff;fill-opacity:1;stroke:none;stroke-width:1.76940608"
       id="g4981">
      <path
         style="font-style:normal;font-variant:normal;font-weight:normal;font-stretch:normal;font-size:339.72598267px;line-height:7.25;font-family:'Sinhala MN';-inkscape-font-specification:'Sinhala MN';fill:#ffffff;stroke-width:1.76940608"
         d="m 183.57422,69.654297 c -11.39055,0 -22.28247,1.383737 -32.67774,4.148437 -10.39526,2.65411 -20.07167,6.468863 -29.02929,11.445313 -8.95761,4.86587 -17.1414,10.78296 -24.550784,17.750003 -7.2988,6.85645 -13.546509,14.48594 -18.74414,22.89062 -5.197631,8.40468 -9.23409,17.47335 -12.109375,27.20508 -2.764697,9.73173 -4.146485,19.84962 -4.146485,30.35547 0,16.03522 3.096142,31.13181 9.289063,45.28711 6.303509,14.0447 14.873324,26.37373 25.710937,36.99023 10.948204,10.5058 23.776184,18.80051 38.484374,24.88282 14.81877,6.0823 30.74291,9.12304 47.77344,9.12304 11.39055,0 22.28443,-1.38178 32.67969,-4.14648 10.39527,-2.7647 20.07168,-6.69035 29.02929,-11.77735 9.06821,-5.0871 17.25198,-11.17044 24.55078,-18.24804 7.29881,-7.0777 13.54651,-14.92889 18.74414,-23.55469 5.30823,-8.6259 9.34469,-17.85887 12.10938,-27.70117 2.87529,-9.9529 4.3125,-20.23903 4.3125,-30.85547 0,-10.50585 -1.43721,-20.62374 -4.3125,-30.35547 -2.76469,-9.73173 -6.80115,-18.8004 -12.10938,-27.20508 -5.19763,-8.40468 -11.44533,-16.03417 -18.74414,-22.89062 -7.2988,-6.967043 -15.48257,-12.884133 -24.55078,-17.750003 -8.95761,-4.97645 -18.63402,-8.791203 -29.02929,-11.445313 -10.39526,-2.7647 -21.28914,-4.148437 -32.67969,-4.148437 z m 0.0625,85.457033 c 2.92909,0 5.73115,0.35546 8.4043,1.0664 2.67315,0.68251 5.16138,1.66367 7.46484,2.94336 2.3319,1.25127 4.43561,2.77288 6.3125,4.56446 1.87689,1.76314 3.48374,3.72545 4.82031,5.88672 1.36501,2.16126 2.40234,4.49357 3.11328,6.99609 0.73939,2.50252 1.10938,5.10505 1.10938,7.80664 0,2.73002 -0.36999,5.3742 -1.10938,7.93359 -0.71094,2.53096 -1.74827,4.9049 -3.11328,7.12305 -1.33657,2.21813 -2.94342,4.23661 -4.82031,6.05664 -1.87689,1.82001 -3.9806,3.38521 -6.3125,4.69336 -2.30346,1.30813 -4.79169,2.3164 -7.46484,3.02734 -2.67315,0.71095 -5.47521,1.06641 -8.4043,1.06641 -4.37941,0 -8.4745,-0.78164 -12.28516,-2.3457 -3.78222,-1.56407 -7.08114,-3.69687 -9.89648,-6.39844 -2.7869,-2.73004 -4.99038,-5.90012 -6.61133,-9.51172 -1.59251,-3.64004 -2.38867,-7.52106 -2.38867,-11.64453 0,-2.70159 0.35546,-5.30412 1.0664,-7.80664 0.73939,-2.50252 1.77671,-4.83483 3.11329,-6.99609 1.33657,-2.16127 2.94342,-4.12358 4.82031,-5.88672 1.90533,-1.79158 4.00904,-3.31319 6.3125,-4.56446 2.30346,-1.27969 4.79365,-2.26085 7.4668,-2.94336 2.67314,-0.71094 5.47325,-1.0664 8.40234,-1.0664 z"
         transform="translate(0,800)"
         id="path4979"
         inkscape:connector-curvature="0" />
    </g>
    <path
       sodipodi:nodetypes="cccccccscccccccsccccscccccc"
       inkscape:connector-curvature="0"
       id="path4983"
       d="m 1263.6903,1315.5777 v 85.4785 c 2.3958,0.1003 4.7085,0.4313 6.9277,1.0215 2.6732,0.6825 5.1614,1.6637 7.4649,2.9434 2.3319,1.2513 4.4356,2.7729 6.3125,4.5644 1.8769,1.7632 3.4837,3.7255 4.8203,5.8868 1.365,2.1612 2.4023,4.4935 3.1133,6.9961 0.7394,2.5025 1.1094,5.105 1.1094,7.8066 0,2.73 -0.37,5.3742 -1.1094,7.9336 -0.711,2.5309 -1.7483,4.9049 -3.1133,7.123 -1.3366,2.2182 -2.9434,4.2366 -4.8203,6.0567 -1.8769,1.82 -3.9806,3.3852 -6.3125,4.6933 -2.3035,1.3082 -4.7917,2.3164 -7.4649,3.0274 -2.2192,0.5902 -4.5319,0.9193 -6.9277,1.0195 v 85.4805 c 10.8318,-0.1194 21.2161,-1.4835 31.1406,-4.123 10.3953,-2.7647 20.0717,-6.6904 29.0293,-11.7774 9.0682,-5.0871 17.252,-11.1704 24.5508,-18.248 7.2988,-7.0778 13.5465,-14.9289 18.7441,-23.5547 5.3083,-8.6259 9.3447,-17.8589 12.1094,-27.7012 2.8753,-9.9529 4.3125,-20.239 4.3125,-30.8555 0,-10.5058 -1.4372,-20.6237 -4.3125,-30.3555 -2.7647,-9.7317 -6.8011,-18.8004 -12.1094,-27.205 -5.1976,-8.4047 -11.4453,-16.0342 -18.7441,-22.8907 -7.2988,-6.967 -15.4826,-12.8841 -24.5508,-17.75 -8.9576,-4.9764 -18.634,-8.7912 -29.0293,-11.4453 -9.9245,-2.6395 -20.3088,-4.0053 -31.1406,-4.125 z"
       style="font-style:normal;font-variant:normal;font-weight:normal;font-stretch:normal;font-size:339.72598267px;line-height:7.25;font-family:'Sinhala MN';-inkscape-font-specification:'Sinhala MN';letter-spacing:0px;word-spacing:0px;fill:#000000;fill-opacity:1;stroke:none;stroke-width:1.76940608" />
    <path
       style="font-style:normal;font-variant:normal;font-weight:normal;font-stretch:normal;font-size:339.72598267px;line-height:7.25;font-family:'Sinhala MN';-inkscape-font-specification:'Sinhala MN';letter-spacing:0px;word-spacing:0px;fill:#000000;fill-opacity:1;stroke:none;stroke-width:1.76940608"
       d="m 1128.3639,1315.5777 c -10.8317,0.1197 -21.2161,1.4855 -31.1406,4.125 -10.3953,2.6541 -20.0717,6.4689 -29.0293,11.4453 -9.0682,4.8659 -17.252,10.783 -24.5508,17.75 -7.2988,6.8565 -13.5465,14.486 -18.7441,22.8907 -5.3083,8.4046 -9.3447,17.4733 -12.1094,27.205 -2.8753,9.7318 -4.3125,19.8497 -4.3125,30.3555 0,10.6165 1.4372,20.9026 4.3125,30.8555 2.7647,9.8423 6.8011,19.0753 12.1094,27.7012 5.1976,8.6258 11.4453,16.4769 18.7441,23.5547 0.065,0.063 0.1323,0.1228 0.1973,0.1855 l -118.67972,152.2227 68.65625,53.5273 133.94337,-171.8027 c 0.2019,0 0.4013,0.013 0.6035,0.016 v -85.4805 c -2.3958,-0.1003 -4.7085,-0.4292 -6.9277,-1.0195 -2.6732,-0.7109 -5.1614,-1.7193 -7.4649,-3.0274 -2.3319,-1.3082 -4.4356,-2.8733 -6.3125,-4.6933 -1.8769,-1.82 -3.4837,-3.8386 -4.8203,-6.0567 -1.365,-2.2181 -2.4023,-4.5921 -3.1133,-7.123 -0.7393,-2.5594 -1.1093,-5.2036 -1.1093,-7.9336 0,-2.7016 0.37,-5.3041 1.1093,-7.8067 0.711,-2.5025 1.7483,-4.8348 3.1133,-6.9961 1.3366,-2.1612 2.9434,-4.1235 4.8203,-5.8867 1.8769,-1.7916 3.9806,-3.3132 6.3125,-4.5644 2.3035,-1.2797 4.7917,-2.2609 7.4649,-2.9434 2.2192,-0.5902 4.5319,-0.9213 6.9277,-1.0215 z"
       id="path4985"
       inkscape:connector-curvature="0" />
    <path
       style="opacity:1;fill:#000000;stroke-width:1.35570967"
       d="m 1152.7159,1315.5367 v 400.1876 h 87.541 67.7402 v -87.5411 h -67.7402 v -312.6465 z"
       id="path4987"
       inkscape:connector-curvature="0" />
    <g
       transform="matrix(0.31124329,0,0,0.31124329,1037.9776,1368.3368)"
       aria-label="O"
       style="font-style:normal;font-weight:normal;font-size:70.77624512px;line-height:1.25;font-family:sans-serif;letter-spacing:0px;word-spacing:0px;opacity:1;fill:#ffffff;fill-opacity:1;stroke:none;stroke-width:1.76940608"
       id="g4991">
      <path
         style="font-style:normal;font-variant:normal;font-weight:normal;font-stretch:normal;font-size:339.72598267px;line-height:7.25;font-family:'Sinhala MN';-inkscape-font-specification:'Sinhala MN';fill:#ffffff;stroke-width:1.76940608"
         d="m 183.57422,69.654297 c -11.39055,0 -22.28247,1.383737 -32.67774,4.148437 -10.39526,2.65411 -20.07167,6.468863 -29.02929,11.445313 -8.95761,4.86587 -17.1414,10.78296 -24.550784,17.750003 -7.2988,6.85645 -13.546509,14.48594 -18.74414,22.89062 -5.197631,8.40468 -9.23409,17.47335 -12.109375,27.20508 -2.764697,9.73173 -4.146485,19.84962 -4.146485,30.35547 0,16.03522 3.096142,31.13181 9.289063,45.28711 6.303509,14.0447 14.873324,26.37373 25.710937,36.99023 10.948204,10.5058 23.776184,18.80051 38.484374,24.88282 14.81877,6.0823 30.74291,9.12304 47.77344,9.12304 11.39055,0 22.28443,-1.38178 32.67969,-4.14648 10.39527,-2.7647 20.07168,-6.69035 29.02929,-11.77735 9.06821,-5.0871 17.25198,-11.17044 24.55078,-18.24804 7.29881,-7.0777 13.54651,-14.92889 18.74414,-23.55469 5.30823,-8.6259 9.34469,-17.85887 12.10938,-27.70117 2.87529,-9.9529 4.3125,-20.23903 4.3125,-30.85547 0,-10.50585 -1.43721,-20.62374 -4.3125,-30.35547 -2.76469,-9.73173 -6.80115,-18.8004 -12.10938,-27.20508 -5.19763,-8.40468 -11.44533,-16.03417 -18.74414,-22.89062 -7.2988,-6.967043 -15.48257,-12.884133 -24.55078,-17.750003 -8.95761,-4.97645 -18.63402,-8.791203 -29.02929,-11.445313 -10.39526,-2.7647 -21.28914,-4.148437 -32.67969,-4.148437 z m 0.0625,85.457033 c 2.92909,0 5.73115,0.35546 8.4043,1.0664 2.67315,0.68251 5.16138,1.66367 7.46484,2.94336 2.3319,1.25127 4.43561,2.77288 6.3125,4.56446 1.87689,1.76314 3.48374,3.72545 4.82031,5.88672 1.36501,2.16126 2.40234,4.49357 3.11328,6.99609 0.73939,2.50252 1.10938,5.10505 1.10938,7.80664 0,2.73002 -0.36999,5.3742 -1.10938,7.93359 -0.71094,2.53096 -1.74827,4.9049 -3.11328,7.12305 -1.33657,2.21813 -2.94342,4.23661 -4.82031,6.05664 -1.87689,1.82001 -3.9806,3.38521 -6.3125,4.69336 -2.30346,1.30813 -4.79169,2.3164 -7.46484,3.02734 -2.67315,0.71095 -5.47521,1.06641 -8.4043,1.06641 -4.37941,0 -8.4745,-0.78164 -12.28516,-2.3457 -3.78222,-1.56407 -7.08114,-3.69687 -9.89648,-6.39844 -2.7869,-2.73004 -4.99038,-5.90012 -6.61133,-9.51172 -1.59251,-3.64004 -2.38867,-7.52106 -2.38867,-11.64453 0,-2.70159 0.35546,-5.30412 1.0664,-7.80664 0.73939,-2.50252 1.77671,-4.83483 3.11329,-6.99609 1.33657,-2.16127 2.94342,-4.12358 4.82031,-5.88672 1.90533,-1.79158 4.00904,-3.31319 6.3125,-4.56446 2.30346,-1.27969 4.79365,-2.26085 7.4668,-2.94336 2.67314,-0.71094 5.47325,-1.0664 8.40234,-1.0664 z"
         transform="translate(0,800)"
         id="path4989"
         inkscape:connector-curvature="0" />
    </g>
    <g
       id="g4995"
       style="font-style:normal;font-weight:normal;font-size:70.77624512px;line-height:1.25;font-family:sans-serif;letter-spacing:0px;word-spacing:0px;opacity:1;fill:#ffffff;fill-opacity:1;stroke:none;stroke-width:1.76940608"
       aria-label="O"
       transform="matrix(0.31124329,0,0,0.31124329,1305.1593,1362.3795)">
      <path
         inkscape:connector-curvature="0"
         id="path4993"
         transform="translate(0,800)"
         d="m 183.57422,69.654297 c -11.39055,0 -22.28247,1.383737 -32.67774,4.148437 -10.39526,2.65411 -20.07167,6.468863 -29.02929,11.445313 -8.95761,4.86587 -17.1414,10.78296 -24.550784,17.750003 -7.2988,6.85645 -13.546509,14.48594 -18.74414,22.89062 -5.197631,8.40468 -9.23409,17.47335 -12.109375,27.20508 -2.764697,9.73173 -4.146485,19.84962 -4.146485,30.35547 0,16.03522 3.096142,31.13181 9.289063,45.28711 6.303509,14.0447 14.873324,26.37373 25.710937,36.99023 10.948204,10.5058 23.776184,18.80051 38.484374,24.88282 14.81877,6.0823 30.74291,9.12304 47.77344,9.12304 11.39055,0 22.28443,-1.38178 32.67969,-4.14648 10.39527,-2.7647 20.07168,-6.69035 29.02929,-11.77735 9.06821,-5.0871 17.25198,-11.17044 24.55078,-18.24804 7.29881,-7.0777 13.54651,-14.92889 18.74414,-23.55469 5.30823,-8.6259 9.34469,-17.85887 12.10938,-27.70117 2.87529,-9.9529 4.3125,-20.23903 4.3125,-30.85547 0,-10.50585 -1.43721,-20.62374 -4.3125,-30.35547 -2.76469,-9.73173 -6.80115,-18.8004 -12.10938,-27.20508 -5.19763,-8.40468 -11.44533,-16.03417 -18.74414,-22.89062 -7.2988,-6.967043 -15.48257,-12.884133 -24.55078,-17.750003 -8.95761,-4.97645 -18.63402,-8.791203 -29.02929,-11.445313 -10.39526,-2.7647 -21.28914,-4.148437 -32.67969,-4.148437 z m 0.0625,85.457033 c 2.92909,0 5.73115,0.35546 8.4043,1.0664 2.67315,0.68251 5.16138,1.66367 7.46484,2.94336 2.3319,1.25127 4.43561,2.77288 6.3125,4.56446 1.87689,1.76314 3.48374,3.72545 4.82031,5.88672 1.36501,2.16126 2.40234,4.49357 3.11328,6.99609 0.73939,2.50252 1.10938,5.10505 1.10938,7.80664 0,2.73002 -0.36999,5.3742 -1.10938,7.93359 -0.71094,2.53096 -1.74827,4.9049 -3.11328,7.12305 -1.33657,2.21813 -2.94342,4.23661 -4.82031,6.05664 -1.87689,1.82001 -3.9806,3.38521 -6.3125,4.69336 -2.30346,1.30813 -4.79169,2.3164 -7.46484,3.02734 -2.67315,0.71095 -5.47521,1.06641 -8.4043,1.06641 -4.37941,0 -8.4745,-0.78164 -12.28516,-2.3457 -3.78222,-1.56407 -7.08114,-3.69687 -9.89648,-6.39844 -2.7869,-2.73004 -4.99038,-5.90012 -6.61133,-9.51172 -1.59251,-3.64004 -2.38867,-7.52106 -2.38867,-11.64453 0,-2.70159 0.35546,-5.30412 1.0664,-7.80664 0.73939,-2.50252 1.77671,-4.83483 3.11329,-6.99609 1.33657,-2.16127 2.94342,-4.12358 4.82031,-5.88672 1.90533,-1.79158 4.00904,-3.31319 6.3125,-4.56446 2.30346,-1.27969 4.79365,-2.26085 7.4668,-2.94336 2.67314,-0.71094 5.47325,-1.0664 8.40234,-1.0664 z"
         style="font-style:normal;font-variant:normal;font-weight:normal;font-stretch:normal;font-size:339.72598267px;line-height:7.25;font-family:'Sinhala MN';-inkscape-font-specification:'Sinhala MN';fill:#ffffff;stroke-width:1.76940608" />
    </g>
    <path
       inkscape:connector-curvature="0"
       id="path4997"
       d="m -813.22475,1315.5777 c -10.8317,0.1197 -21.2161,1.4855 -31.1406,4.125 -10.3953,2.6541 -20.0717,6.4689 -29.0293,11.4453 -9.0682,4.8659 -17.252,10.783 -24.5508,17.75 -7.2988,6.8565 -13.5465,14.486 -18.7441,22.8907 -5.3083,8.4046 -9.3447,17.4733 -12.1094,27.205 -2.8753,9.7318 -4.3125,19.8497 -4.3125,30.3555 0,10.6165 1.4372,20.9026 4.3125,30.8555 2.7647,9.8423 6.8011,19.0753 12.1094,27.7012 5.1976,8.6258 11.4453,16.4769 18.7441,23.5547 0.065,0.063 0.1323,0.1228 0.1973,0.1855 l -118.67975,152.2227 68.65628,53.5273 133.94337,-171.8027 c 0.2019,0 0.4013,0.013 0.6035,0.016 v -85.4805 c -2.3958,-0.1003 -4.7085,-0.4292 -6.9277,-1.0195 -2.6732,-0.7109 -5.1614,-1.7193 -7.4649,-3.0274 -2.3319,-1.3082 -4.4356,-2.8733 -6.3125,-4.6933 -1.8769,-1.82 -3.4837,-3.8386 -4.8203,-6.0567 -1.365,-2.2181 -2.4023,-4.5921 -3.1133,-7.123 -0.7393,-2.5594 -1.1093,-5.2036 -1.1093,-7.9336 0,-2.7016 0.37,-5.3041 1.1093,-7.8067 0.711,-2.5025 1.7483,-4.8348 3.1133,-6.9961 1.3366,-2.1612 2.9434,-4.1235 4.8203,-5.8867 1.8769,-1.7916 3.9806,-3.3132 6.3125,-4.5644 2.3035,-1.2797 4.7917,-2.2609 7.4649,-2.9434 2.2192,-0.5902 4.5319,-0.9213 6.9277,-1.0215 z"
       style="font-style:normal;font-variant:normal;font-weight:normal;font-stretch:normal;font-size:339.72598267px;line-height:7.25;font-family:'Sinhala MN';-inkscape-font-specification:'Sinhala MN';letter-spacing:0px;word-spacing:0px;fill:#000000;fill-opacity:1;stroke:none;stroke-width:1.76940608" />
    <path
       sodipodi:nodetypes="cccccccscccccccsccccscccccc"
       inkscape:connector-curvature="0"
       id="path4999"
       d="m -679.49554,488.01542 v 147.7213 c -4.14034,0.1732 -8.13707,0.7453 -11.97223,1.7653 -4.61974,1.1795 -8.91978,2.875 -12.90062,5.0866 -4.02992,2.1624 -7.66546,4.792 -10.90907,7.8882 -3.24359,3.047 -6.02042,6.4381 -8.33029,10.1733 -2.35895,3.735 -4.15158,7.7656 -5.38031,12.0904 -1.2778,4.3247 -1.91723,8.8223 -1.91723,13.4911 0,4.718 0.63943,9.2875 1.91723,13.7106 1.22873,4.374 3.02136,8.4765 5.38031,12.31 2.30987,3.8332 5.0867,7.3214 8.33029,10.4668 3.24361,3.1453 6.87915,5.8502 10.90907,8.1109 3.98084,2.2607 8.28088,4.0031 12.90062,5.2318 3.83516,1.02 7.83189,1.5886 11.97223,1.762 v 147.7246 c -18.71918,-0.2064 -36.66501,-2.5637 -53.81623,-7.1253 -17.96483,-4.7778 -34.68729,-11.5621 -50.16755,-20.3533 -15.67138,-8.7913 -29.81438,-19.3043 -42.42794,-31.5357 -12.61356,-12.2314 -23.41065,-25.7996 -32.39298,-40.7064 -9.17365,-14.9071 -16.14923,-30.8632 -20.9271,-47.8724 -4.969,-17.2003 -7.45273,-34.9765 -7.45273,-53.3234 0,-18.1559 2.48373,-35.6414 7.45273,-52.4594 4.77787,-16.818 11.75345,-32.4903 20.9271,-47.0151 8.98233,-14.5247 19.77942,-27.7098 32.39298,-39.5588 12.61356,-12.0403 26.75656,-22.2659 42.42794,-30.675 15.48026,-8.6002 32.20272,-15.1927 50.16755,-19.7794 17.15122,-4.5615 35.09705,-6.922 53.81623,-7.1287 z"
       style="font-style:normal;font-variant:normal;font-weight:normal;font-stretch:normal;font-size:339.72598267px;line-height:7.25;font-family:'Sinhala MN';-inkscape-font-specification:'Sinhala MN';letter-spacing:0px;word-spacing:0px;opacity:0.7;fill:#000000;fill-opacity:1;stroke:none;stroke-width:3.05783367" />
    <path
       sodipodi:nodetypes="cccccccscccccccsccccscccccc"
       inkscape:connector-curvature="0"
       id="path5001"
       d="m -537.54141,1620.5255 v -85.4786 c -2.3958,-0.1002 -4.7085,-0.4313 -6.9277,-1.0215 -2.6732,-0.6825 -5.1614,-1.6637 -7.4649,-2.9433 -2.3319,-1.2513 -4.4356,-2.7729 -6.3125,-4.5645 -1.8769,-1.7631 -3.4837,-3.7255 -4.8203,-5.8867 -1.365,-2.1613 -2.4023,-4.4936 -3.1133,-6.9961 -0.7394,-2.5025 -1.1094,-5.1051 -1.1094,-7.8067 0,-2.73 0.37,-5.3742 1.1094,-7.9335 0.711,-2.531 1.7483,-4.9049 3.1133,-7.1231 1.3366,-2.2181 2.9434,-4.2366 4.8203,-6.0566 1.8769,-1.82 3.9806,-3.3852 6.3125,-4.6934 2.3035,-1.3081 4.7917,-2.3164 7.4649,-3.0273 2.2192,-0.5903 4.5319,-0.9193 6.9277,-1.0196 v -85.4804 c -10.8318,0.1194 -21.2161,1.4835 -31.1406,4.123 -10.3953,2.7647 -20.0717,6.6904 -29.0293,11.7774 -9.0682,5.0871 -17.252,11.1704 -24.5508,18.248 -7.2988,7.0777 -13.5465,14.9289 -18.7441,23.5547 -5.3083,8.6259 -9.3447,17.8589 -12.1094,27.7012 -2.8753,9.9529 -4.3125,20.239 -4.3125,30.8554 0,10.5059 1.4372,20.6238 4.3125,30.3555 2.7647,9.7317 6.8011,18.8004 12.1094,27.2051 5.1976,8.4047 11.4453,16.0341 18.7441,22.8906 7.2988,6.9671 15.4826,12.8842 24.5508,17.75 8.9576,4.9765 18.634,8.7913 29.0293,11.4454 9.9245,2.6395 20.3088,4.0053 31.1406,4.125 z"
       style="font-style:normal;font-variant:normal;font-weight:normal;font-stretch:normal;font-size:339.72598267px;line-height:7.25;font-family:'Sinhala MN';-inkscape-font-specification:'Sinhala MN';letter-spacing:0px;word-spacing:0px;fill:#000000;fill-opacity:1;stroke:none;stroke-width:1.76940608" />
    <path
       style="font-style:normal;font-variant:normal;font-weight:normal;font-stretch:normal;font-size:339.72598267px;line-height:7.25;font-family:'Sinhala MN';-inkscape-font-specification:'Sinhala MN';letter-spacing:0px;word-spacing:0px;fill:#000000;fill-opacity:1;stroke:none;stroke-width:1.76940608"
       d="m -20.312123,1620.5255 v -85.4786 c 2.3958,-0.1002 4.7085,-0.4313 6.9277,-1.0215 2.6732,-0.6825 5.1614,-1.6637 7.4649,-2.9433 2.3319,-1.2513 4.4356,-2.7729 6.3125,-4.5645 1.8769,-1.7631 3.4837,-3.7255 4.8203,-5.8867 1.365,-2.1613 2.4023,-4.4936 3.1133,-6.9961 0.7394,-2.5025 1.1094,-5.1051 1.1094,-7.8067 0,-2.73 -0.37,-5.3742 -1.1094,-7.9335 -0.711,-2.531 -1.7483,-4.9049 -3.1133,-7.1231 -1.3366,-2.2181 -2.9434,-4.2366 -4.8203,-6.0566 -1.8769,-1.82 -3.9806,-3.3852 -6.3125,-4.6934 -2.3035,-1.3081 -4.7917,-2.3164 -7.4649,-3.0273 -2.2192,-0.5903 -4.5319,-0.9193 -6.9277,-1.0196 v -85.4804 c 10.8318,0.1194 21.2161,1.4835 31.1406,4.123 10.3953,2.7647 20.0717,6.6904 29.0293,11.7774 9.068203,5.0871 17.252003,11.1704 24.550803,18.248 7.2988,7.0777 13.5465,14.9289 18.7441,23.5547 5.3083,8.6259 9.3447,17.8589 12.1094,27.7012 2.87529,9.9529 4.31249,20.239 4.31249,30.8554 0,10.5059 -1.4372,20.6238 -4.31249,30.3555 -2.7647,9.7317 -6.8011,18.8004 -12.1094,27.2051 -5.1976,8.4047 -11.4453,16.0341 -18.7441,22.8906 -7.2988,6.9671 -15.4826,12.8842 -24.550803,17.75 -8.9576,4.9765 -18.634,8.7913 -29.0293,11.4454 -9.9245,2.6395 -20.3088,4.0053 -31.1406,4.125 z"
       id="path5005"
       inkscape:connector-curvature="0"
       sodipodi:nodetypes="cccccccscccccccsccccscccccc" />
    <path
       inkscape:connector-curvature="0"
       id="path5007"
       d="m -351.61423,1715.3961 c -10.8317,-0.1197 -21.2161,-1.4855 -31.1406,-4.125 -10.3953,-2.6541 -20.0717,-6.4689 -29.0293,-11.4453 -9.0682,-4.8659 -17.252,-10.783 -24.5508,-17.75 -7.2988,-6.8565 -13.5465,-14.486 -18.7441,-22.8907 -5.3083,-8.4046 -9.3447,-17.4733 -12.1094,-27.205 -2.8753,-9.7318 -4.3125,-19.8497 -4.3125,-30.3555 0,-10.6165 1.4372,-20.9026 4.3125,-30.8555 2.7647,-9.8423 6.8011,-19.0753 12.1094,-27.7012 5.1976,-8.6258 11.4453,-16.4769 18.7441,-23.5547 0.065,-0.063 0.1323,-0.1228 0.1973,-0.1855 l -70.67975,-100.2227 68.65628,-53.5273 85.94337,119.8027 c 0.2019,0 0.4013,-0.013 0.6035,-0.016 v 85.4805 c -2.3958,0.1003 -4.7085,0.4292 -6.9277,1.0195 -2.6732,0.7109 -5.1614,1.7193 -7.4649,3.0274 -2.3319,1.3082 -4.4356,2.8733 -6.3125,4.6933 -1.8769,1.82 -3.4837,3.8386 -4.8203,6.0567 -1.365,2.2181 -2.4023,4.5921 -3.1133,7.123 -0.7393,2.5594 -1.1093,5.2036 -1.1093,7.9336 0,2.7016 0.37,5.3041 1.1093,7.8067 0.711,2.5025 1.7483,4.8348 3.1133,6.9961 1.3366,2.1612 2.9434,4.1235 4.8203,5.8867 1.8769,1.7916 3.9806,3.3132 6.3125,4.5644 2.3035,1.2797 4.7917,2.2609 7.4649,2.9434 2.2192,0.5902 4.5319,0.9213 6.9277,1.0215 z"
       style="font-style:normal;font-variant:normal;font-weight:normal;font-stretch:normal;font-size:339.72598267px;line-height:7.25;font-family:'Sinhala MN';-inkscape-font-specification:'Sinhala MN';letter-spacing:0px;word-spacing:0px;fill:#000000;fill-opacity:1;stroke:none;stroke-width:1.76940608"
       sodipodi:nodetypes="ccccccscccccccccccsccsccccccc" />
    <path
       style="font-style:normal;font-variant:normal;font-weight:normal;font-stretch:normal;font-size:339.72598267px;line-height:7.25;font-family:'Sinhala MN';-inkscape-font-specification:'Sinhala MN';letter-spacing:0px;word-spacing:0px;fill:#000000;fill-opacity:1;stroke:none;stroke-width:1.76940608"
       d="m -122.07375,1315.5777 c -10.8317,0.1197 -21.2161,1.4855 -31.1406,4.125 -10.3953,2.6541 -20.0717,6.4689 -29.0293,11.4453 -9.0682,4.8659 -17.252,10.783 -24.5508,17.75 -7.2988,6.8565 -13.5465,14.486 -18.7441,22.8907 -5.3083,8.4046 -9.3447,17.4733 -12.1094,27.205 -2.8753,9.7318 -4.3125,19.8497 -4.3125,30.3555 0,10.6165 1.4372,20.9026 4.3125,30.8555 2.7647,9.8423 6.8011,19.0753 12.1094,27.7012 5.1976,8.6258 11.4453,16.4769 18.7441,23.5547 0.065,0.063 0.1323,0.1228 0.1973,0.1855 l -118.67975,152.2227 68.65628,53.5273 133.94337,-171.8027 c 0.2019,0 0.4013,0.013 0.6035,0.016 v -85.4805 c -2.3958,-0.1003 -4.7085,-0.4292 -6.9277,-1.0195 -2.6732,-0.7109 -5.1614,-1.7193 -7.4649,-3.0274 -2.3319,-1.3082 -4.4356,-2.8733 -6.3125,-4.6933 -1.8769,-1.82 -3.4837,-3.8386 -4.8203,-6.0567 -1.365,-2.2181 -2.4023,-4.5921 -3.1133,-7.123 -0.7393,-2.5594 -1.1093,-5.2036 -1.1093,-7.9336 0,-2.7016 0.37,-5.3041 1.1093,-7.8067 0.711,-2.5025 1.7483,-4.8348 3.1133,-6.9961 1.3366,-2.1612 2.9434,-4.1235 4.8203,-5.8867 1.8769,-1.7916 3.9806,-3.3132 6.3125,-4.5644 2.3035,-1.2797 4.7917,-2.2609 7.4649,-2.9434 2.2192,-0.5902 4.5319,-0.9213 6.9277,-1.0215 z"
       id="path5009"
       inkscape:connector-curvature="0" />
  </g>
</svg>
