<?xml version="1.0" encoding="utf-8"?>
<!-- Generator: Adobe Illustrator 23.0.6, SVG Export Plug-In . SVG Version: 6.00 Build 0)  -->
<svg version="1.1" xmlns="http://www.w3.org/2000/svg" xmlns:xlink="http://www.w3.org/1999/xlink" x="0px" y="0px"
	 viewBox="0 0 400 400" style="enable-background:new 0 0 400 400;" xml:space="preserve">
<style type="text/css">
	.st0{fill:none;stroke:#6CBE45;stroke-width:2.2253;stroke-miterlimit:10;}
	.st1{fill:none;stroke:#6CBE45;stroke-width:2.5235;stroke-miterlimit:10;}
	.st2{display:none;}
	.st3{display:inline;fill:none;stroke:#000000;stroke-width:0.7174;stroke-miterlimit:10;}
</style>
<g id="Layer_3">
	<circle class="st0" cx="-210.3" cy="192.5" r="189.9"/>
	<circle class="st0" cx="-210.3" cy="192.5" r="119.2"/>
	<circle class="st0" cx="148.6" cy="105.9" r="71.5"/>
	<circle class="st0" cx="148.6" cy="219.7" r="71.5"/>
	<circle class="st0" cx="-210.3" cy="191.4" r="71.5"/>
	<circle class="st0" cx="-210.3" cy="192.5" r="47.7"/>
	<circle class="st0" cx="148.6" cy="204.3" r="23.8"/>
	<circle class="st0" cx="318.2" cy="163.4" r="23.8"/>
	<circle class="st0" cx="318.2" cy="115.2" r="23.8"/>
	<circle class="st0" cx="318.2" cy="322.2" r="23.8"/>
	<circle class="st0" cx="94.6" cy="163.4" r="23.8"/>
	<circle class="st0" cx="148.6" cy="118.8" r="23.8"/>
	<line class="st0" x1="341.3" y1="139.6" x2="70.5" y2="139.6"/>
	<line class="st0" x1="341.2" y1="187.2" x2="70.5" y2="187.2"/>
	<line class="st1" x1="342.1" y1="376.1" x2="342.1" y2="28"/>
	<line class="st1" x1="294.4" y1="376" x2="294.4" y2="28"/>
	<line class="st1" x1="471" y1="417.2" x2="203" y2="194.9"/>
	<line class="st1" x1="440.4" y1="453.8" x2="172.6" y2="231.6"/>
	<line class="st0" x1="118.5" y1="298.7" x2="118.5" y2="28"/>
	<line class="st0" x1="70.8" y1="298.6" x2="70.8" y2="28"/>
</g>
<g id="GOLDEN_RATION" class="st2">
	<rect x="204.9" y="141" class="st3" width="15.4" height="15.4"/>
	<rect x="220.3" y="141" class="st3" width="15.4" height="15.4"/>
	
		<rect x="204.8" y="156.5" transform="matrix(-1.836970e-16 1 -1 -1.836970e-16 392.1054 -48.4499)" class="st3" width="30.9" height="30.7"/>
	
		<rect x="235.6" y="141" transform="matrix(-1 -1.224647e-16 1.224647e-16 -1 517.3866 328.288)" class="st3" width="46.1" height="46.3"/>
	
		<rect x="204.9" y="64.2" transform="matrix(-1.836970e-16 1 -1 -1.836970e-16 345.8994 -140.7553)" class="st3" width="76.8" height="76.8"/>
	<rect x="82.5" y="64.2" class="st3" width="122.4" height="123.1"/>
	<circle class="st3" cx="143.7" cy="125.7" r="61.2"/>
	<circle class="st3" cx="243.3" cy="102.6" r="38.4"/>
	<circle class="st3" cx="258.7" cy="164.1" r="23"/>
	<circle class="st3" cx="220.3" cy="171.8" r="15.4"/>
	<circle class="st3" cx="212.6" cy="148.7" r="7.7"/>
</g>
</svg>
